<svg width="30" height="29" viewBox="0 0 30 29" fill="none" xmlns="http://www.w3.org/2000/svg">
<g id="Frame 988">
<g id="Group 34585">
<path id="Rectangle 55 (Stroke)" fill-rule="evenodd" clip-rule="evenodd" d="M18.0996 3.90625C16.4428 3.90625 15.0996 5.2494 15.0996 6.90625V13.3062C15.0996 13.5824 15.3235 13.8062 15.5996 13.8062H21.9996C23.6565 13.8062 24.9996 12.4631 24.9996 10.8062V6.90625C24.9996 5.2494 23.6565 3.90625 21.9996 3.90625H18.0996Z" fill="#fff"/>
<path id="Rectangle 56 (Stroke)" fill-rule="evenodd" clip-rule="evenodd" d="M9.90039 3.90625C11.5572 3.90625 12.9004 5.2494 12.9004 6.90625V13.3062C12.9004 13.5824 12.6765 13.8062 12.4004 13.8062H6.00039C4.34354 13.8062 3.00039 12.4631 3.00039 10.8062V6.90625C3.00039 5.2494 4.34354 3.90625 6.00039 3.90625H9.90039Z" fill="#fff"/>
<path id="Rectangle 57 (Stroke)" fill-rule="evenodd" clip-rule="evenodd" d="M9.90039 25.9062C11.5572 25.9062 12.9004 24.5631 12.9004 22.9062V16.5063C12.9004 16.2301 12.6765 16.0063 12.4004 16.0063H6.00039C4.34354 16.0063 3.00039 17.3494 3.00039 19.0063V22.9063C3.00039 24.5631 4.34354 25.9062 6.00039 25.9062H9.90039Z" fill="#fff"/>
<path id="Rectangle 58 (Stroke)" fill-rule="evenodd" clip-rule="evenodd" d="M18.0996 25.9062C16.4428 25.9062 15.0996 24.5631 15.0996 22.9062V16.5063C15.0996 16.2301 15.3235 16.0063 15.5996 16.0063H21.9996C23.6565 16.0063 24.9996 17.3494 24.9996 19.0063V22.9063C24.9996 24.5631 23.6565 25.9062 21.9996 25.9062H18.0996Z" fill="#fff"/>
</g>
</g>
</svg>
