<svg width="29" height="30" viewBox="0 0 29 30" fill="none" xmlns="http://www.w3.org/2000/svg">
<g id="vuesax/linear/receipt-item">
<path id="Vector" d="M26.583 8.15609V11.0803C26.583 12.9894 25.3747 14.1978 23.4655 14.1978H19.333V5.7515C19.333 4.41025 20.4326 3.32275 21.7738 3.32275C23.0909 3.33484 24.2993 3.8665 25.1693 4.7365C26.0393 5.61859 26.583 6.82692 26.583 8.15609Z" stroke="#9297A2" stroke-width="1.5" stroke-miterlimit="10" stroke-linecap="round" stroke-linejoin="round"/>
<path id="Vector_2" d="M2.41699 9.36442V26.2811C2.41699 27.284 3.55283 27.8519 4.35033 27.2478L6.41658 25.7011C6.89991 25.3386 7.57658 25.3869 8.01158 25.8219L10.0174 27.8398C10.4887 28.3111 11.262 28.3111 11.7332 27.8398L13.7632 25.8098C14.1862 25.3869 14.8628 25.3386 15.3341 25.7011L17.4003 27.2478C18.1978 27.8398 19.3337 27.2719 19.3337 26.2811V5.73942C19.3337 4.41025 20.4212 3.32275 21.7503 3.32275H8.45866H7.25033C3.62533 3.32275 2.41699 5.48567 2.41699 8.15609V9.36442Z" stroke="#9297A2" stroke-width="1.5" stroke-miterlimit="10" stroke-linecap="round" stroke-linejoin="round"/>
<path id="Vector_3" d="M10.875 16.6265H14.5" stroke="#9297A2" stroke-width="1.5" stroke-linecap="round" stroke-linejoin="round"/>
<path id="Vector_4" d="M10.875 11.7935H14.5" stroke="#9297A2" stroke-width="1.5" stroke-linecap="round" stroke-linejoin="round"/>
<path id="Vector_5" d="M7.24512 16.6147H7.25597" stroke="#9297A2" stroke-width="2" stroke-linecap="round" stroke-linejoin="round"/>
<path id="Vector_6" d="M7.24512 11.7812H7.25597" stroke="#9297A2" stroke-width="2" stroke-linecap="round" stroke-linejoin="round"/>
</g>
</svg>
