<svg width="29" height="30" viewBox="0 0 29 30" fill="none" xmlns="http://www.w3.org/2000/svg">
<g id="vuesax/outline/shopping-cart">
<g id="shopping-cart">
<path id="Vector" d="M21.9799 22.354H9.11115C7.9149 22.354 6.76698 21.8465 5.9574 20.9644C5.14782 20.0823 4.73699 18.8982 4.83366 17.7019L5.83658 5.66692C5.87283 5.29234 5.7399 4.92984 5.48615 4.65193C5.2324 4.37401 4.88199 4.229 4.5074 4.229H2.41699C1.92158 4.229 1.51074 3.81817 1.51074 3.32275C1.51074 2.82734 1.92158 2.4165 2.41699 2.4165H4.5195C5.40158 2.4165 6.23532 2.79108 6.8274 3.4315C7.15365 3.794 7.39532 4.21693 7.52824 4.68818H22.6203C23.8407 4.68818 24.9645 5.1715 25.7862 6.0415C26.5957 6.92359 27.0066 8.07151 26.9099 9.29192L26.2574 18.3544C26.1245 20.5657 24.1912 22.354 21.9799 22.354ZM7.58866 6.48858L6.64616 17.8469C6.58574 18.5477 6.81532 19.2123 7.28657 19.7319C7.75782 20.2515 8.41032 20.5294 9.11115 20.5294H21.9799C23.2366 20.5294 24.3724 19.4661 24.4691 18.2094L25.1216 9.14693C25.1699 8.43401 24.9403 7.75735 24.4691 7.26193C23.9978 6.75443 23.3453 6.47649 22.6324 6.47649H7.58866V6.48858Z" fill="#9297A2"/>
<path id="Vector_2" d="M19.6354 28.3958C18.3063 28.3958 17.2188 27.3083 17.2188 25.9792C17.2188 24.65 18.3063 23.5625 19.6354 23.5625C20.9646 23.5625 22.0521 24.65 22.0521 25.9792C22.0521 27.3083 20.9646 28.3958 19.6354 28.3958ZM19.6354 25.375C19.2971 25.375 19.0313 25.6408 19.0313 25.9792C19.0313 26.3175 19.2971 26.5833 19.6354 26.5833C19.9738 26.5833 20.2396 26.3175 20.2396 25.9792C20.2396 25.6408 19.9738 25.375 19.6354 25.375Z" fill="#9297A2"/>
<path id="Vector_3" d="M9.96842 28.3958C8.63926 28.3958 7.55176 27.3083 7.55176 25.9792C7.55176 24.65 8.63926 23.5625 9.96842 23.5625C11.2976 23.5625 12.3851 24.65 12.3851 25.9792C12.3851 27.3083 11.2976 28.3958 9.96842 28.3958ZM9.96842 25.375C9.63009 25.375 9.36426 25.6408 9.36426 25.9792C9.36426 26.3175 9.63009 26.5833 9.96842 26.5833C10.3068 26.5833 10.5726 26.3175 10.5726 25.9792C10.5726 25.6408 10.3068 25.375 9.96842 25.375Z" fill="#9297A2"/>
<path id="Vector_4" d="M25.375 11.479H10.875C10.3796 11.479 9.96875 11.0682 9.96875 10.5728C9.96875 10.0773 10.3796 9.6665 10.875 9.6665H25.375C25.8704 9.6665 26.2812 10.0773 26.2812 10.5728C26.2812 11.0682 25.8704 11.479 25.375 11.479Z" fill="#9297A2"/>
</g>
</g>
</svg>
